{"title":"Geordie Shore Season 8 EP1 801 1080P WEB-DL","uid":10624110,"size":1596048904,"categoryP":"video","categoryS":"hd___tv_shows","magnet":"?xt=urn:btih:8e77b3d7ab16b3794045d08773d3356c83043533&amp;dn=Geordie+Shore+Season+8+EP1+801+1080P+WEB-DL&amp;tr=udp%3A%2F%2Ftracker.openbittorrent.com%3A80&amp;tr=udp%3A%2F%2Fopen.demonii.com%3A1337&amp;tr=udp%3A%2F%2Ftracker.coppersurfer.tk%3A6969&amp;tr=udp%3A%2F%2Fexodus.desync.com%3A6969","seeders":3,"leechers":0,"uploader":"jmanwf","files":-1,"time":1406202677,"description":"A new lad - Aaron, joins the cast. Marnie promises to try and stay away from the lads, but ends up in bed with Gary right away.\n\n\n\nFormat : MPEG-4\nFormat profile : Base Media / Version 2\nCodec ID : mp42\nFile size : 1.49 GiB\nDuration : 42mn 14s\nOverall bit rate mode : Variable\nOverall bit rate : 5 037 Kbps\nMovie name : 801\nAlbum : Geordie Shore, Season 8\nPart/Position : 1\nPart/Total : 1\nTrack name/Position : 1\nTrack name/Total : 8\nPerformer : Geordie Shore\nGenre : Reality TV\nRecorded date : UTC 2014-07-22 07:00:00\nEncoded date : UTC 2014-07-24 04:18:01\nTagged date : UTC 2014-07-24 04:21:02\n\nVideo\nID : 2\nFormat : AVC\nFormat/Info : Advanced Video Codec\nFormat profile : &lt;a class=&quot;__cf_email__&quot; href=&quot;/cdn-cgi/l/email-protection&quot; data-cfemail=&quot;b1f9d8d6d9f1fd859f81&quot;&gt;[email&amp;#160;protected]&lt;/a&gt;&lt;script cf-hash='f9e31' type=&quot;text/javascript&quot;&gt;\n/* &lt;![CDATA[ */!function(){try{var t=&quot;currentScript&quot;in document?document.currentScript:function(){for(var t=document.getElementsByTagName(&quot;script&quot;),e=t.length;e--;)if(t[e].getAttribute(&quot;cf-hash&quot;))return t[e]}();if(t&amp;&amp;t.previousSibling){var e,r,n,i,c=t.previousSibling,a=c.getAttribute(&quot;data-cfemail&quot;);if(a){for(e=&quot;&quot;,r=parseInt(a.substr(0,2),16),n=2;a.length-n;n+=2)i=parseInt(a.substr(n,2),16)^r,e+=String.fromCharCode(i);e=document.createTextNode(e),c.parentNode.replaceChild(e,c)}}}catch(u){}}();/* ]]&gt; */&lt;/script&gt;\nFormat settings, CABAC : Yes\nFormat settings, ReFrames : 4 frames\nCodec ID : avc1\nCodec ID/Info : Advanced Video Coding\nDuration : 42mn 14s\nBit rate : 4 905 Kbps\nWidth : 1 920 pixels\nHeight : 1 080 pixels\nDisplay aspect ratio : 16:9\nFrame rate : 25.000 fps\nColor space : YUV\nChroma subsampling : 4:2:0\nBit depth : 8 bits\nScan type : Progressive\nBits/(Pixel*Frame) : 0.095\nStream size : 1.45 GiB (97%)\nLanguage : English\nEncoded date : UTC 2014-07-24 04:20:09\nTagged date : UTC 2014-07-24 04:21:00\nColor primaries : BT.709\nTransfer characteristics : BT.709\nMatrix coefficients : BT.709\n\nAudio\nID : 1\nFormat : AAC\nFormat/Info : Advanced Audio Codec\nFormat profile : LC\nCodec ID : 40\nDuration : 42mn 14s\nBit rate mode : Variable\nBit rate : 128 Kbps\nMaximum bit rate : 213 Kbps\nChannel(s) : 2 channels\nChannel positions : Front: L R\nSampling rate : 48.0 KHz\nCompression mode : Lossy\nStream size : 38.8 MiB (3%)\nLanguage : English\nEncoded date : UTC 2014-07-24 04:18:03\nTagged date : UTC 2014-07-24 04:20:08\n\n\n\n\n &lt;a href=&quot;\nhttp://www.imdb.com/title/tt1960255/&quot; rel=&quot;nofollow&quot; target=&quot;_NEW&quot;&gt;\nhttp://www.imdb.com/title/tt1960255/&lt;/a&gt;","torrent":{"xt":"urn:btih:8e77b3d7ab16b3794045d08773d3356c83043533","amp;dn":"Geordie+Shore+Season+8+EP1+801+1080P+WEB-DL","amp;tr":["udp%3A%2F%2Ftracker.openbittorrent.com%3A80","udp%3A%2F%2Fopen.demonii.com%3A1337","udp%3A%2F%2Ftracker.coppersurfer.tk%3A6969","udp%3A%2F%2Fexodus.desync.com%3A6969"],"infoHash":"8e77b3d7ab16b3794045d08773d3356c83043533","infoHashBuffer":{"type":"Buffer","data":[142,119,179,215,171,22,179,121,64,69,208,135,115,211,53,108,131,4,53,51]},"announce":[],"urlList":[]}}